<?xml version="1.0" encoding="UTF-8" standalone="no"?>
<svg
   viewBox="0 0 108 108"
   width="108"
   height="108"
   version="1.1"
   id="svg9"
   sodipodi:docname="pocket_crew_icon_material_you.svg"
   inkscape:version="1.4.3 (1:1.4.3+202512261035+0d15f75042)"
   inkscape:export-filename="pocket_crew_icon_no_background.png"
   inkscape:export-xdpi="910.22223"
   inkscape:export-ydpi="910.22223"
   xmlns:inkscape="http://www.inkscape.org/namespaces/inkscape"
   xmlns:sodipodi="http://sodipodi.sourceforge.net/DTD/sodipodi-0.dtd"
   xmlns="http://www.w3.org/2000/svg"
   xmlns:svg="http://www.w3.org/2000/svg">
  <sodipodi:namedview
     id="namedview9"
     pagecolor="#505050"
     bordercolor="#eeeeee"
     borderopacity="1"
     inkscape:showpageshadow="0"
     inkscape:pageopacity="0"
     inkscape:pagecheckerboard="0"
     inkscape:deskcolor="#505050"
     inkscape:zoom="14.549323"
     inkscape:cx="49.830497"
     inkscape:cy="49.933595"
     inkscape:window-width="2560"
     inkscape:window-height="1348"
     inkscape:window-x="2560"
     inkscape:window-y="0"
     inkscape:window-maximized="1"
     inkscape:current-layer="svg9" />
  <defs
     id="defs6">
    <filter
       id="neonGlow"
       x="-0.44210526"
       y="-0.38181818"
       width="1.8842105"
       height="1.7636364">
      <feGaussianBlur
         in="SourceGraphic"
         stdDeviation="1"
         result="blur1"
         id="feGaussianBlur1" />
      <feGaussianBlur
         in="SourceGraphic"
         stdDeviation="2.5"
         result="blur2"
         id="feGaussianBlur2" />
      <feMerge
         id="feMerge4">
        <feMergeNode
           in="blur2"
           id="feMergeNode2" />
        <feMergeNode
           in="blur1"
           id="feMergeNode3" />
        <feMergeNode
           in="SourceGraphic"
           id="feMergeNode4" />
      </feMerge>
    </filter>
    <g
       id="agent">
      <polygon
         points="0,-11 9.5,-5.5 9.5,5.5 0,11 -9.5,5.5 -9.5,-5.5"
         id="polygon4" />
      <polygon
         points="-5.5,1 -2,3 -3.5,6"
         fill="#18181B"
         id="polygon5" />
      <polygon
         points="5.5,1 2,3 3.5,6"
         fill="#18181B"
         id="polygon6" />
    </g>
  </defs>
  <path
     id="path11-6"
     style="fill:#000000;stroke-width:0;stroke-dasharray:none;stroke:none"
     d="M 53.568359 24.798828 L 44.138672 30.470703 L 44.359375 41.433594 L 54.009766 46.724609 L 63.439453 41.054688 L 63.21875 30.091797 L 53.568359 24.798828 z M 59.59375 36.302734 L 59.453125 38.841797 L 59.203125 39.970703 L 57.583984 41.267578 L 56.105469 41.142578 L 56.105469 38.296875 L 59.59375 36.302734 z M 48.601562 36.318359 L 52.089844 38.314453 L 52.089844 41.160156 L 50.609375 41.285156 L 48.992188 39.988281 L 48.740234 38.857422 L 48.601562 36.318359 z M 67.306641 42.900391 L 57.876953 48.572266 L 58.097656 59.535156 L 67.748047 64.826172 L 77.177734 59.15625 L 76.957031 48.193359 L 67.306641 42.900391 z M 40.251953 43.173828 L 30.822266 48.845703 L 31.042969 59.808594 L 40.693359 65.099609 L 50.123047 59.429688 L 49.902344 48.466797 L 40.251953 43.173828 z M 73.332031 54.404297 L 73.191406 56.943359 L 72.941406 58.072266 L 71.322266 59.369141 L 69.84375 59.244141 L 69.84375 56.398438 L 73.332031 54.404297 z M 62.339844 54.419922 L 65.828125 56.416016 L 65.828125 59.261719 L 64.347656 59.386719 L 62.730469 58.089844 L 62.478516 56.958984 L 62.339844 54.419922 z M 46.277344 54.677734 L 46.136719 57.216797 L 45.886719 58.345703 L 44.267578 59.642578 L 42.789062 59.517578 L 42.789062 56.671875 L 46.277344 54.677734 z M 35.285156 54.693359 L 38.773438 56.689453 L 38.773438 59.535156 L 37.292969 59.660156 L 35.675781 58.363281 L 35.423828 57.232422 L 35.285156 54.693359 z M 53.990234 61.275391 L 44.560547 66.947266 L 44.78125 77.910156 L 54.431641 83.201172 L 63.861328 77.53125 L 63.640625 66.568359 L 53.990234 61.275391 z M 60.015625 72.779297 L 59.875 75.318359 L 59.625 76.447266 L 58.005859 77.744141 L 56.527344 77.619141 L 56.527344 74.773438 L 60.015625 72.779297 z M 49.023438 72.794922 L 52.511719 74.791016 L 52.511719 77.636719 L 51.03125 77.761719 L 49.414062 76.464844 L 49.162109 75.333984 L 49.023438 72.794922 z " />
</svg>
